<svg width="110" height="26" viewBox="0 0 110 26" fill="none" xmlns="http://www.w3.org/2000/svg">
<path d="M28.744 11.6614L26.7793 11.6976C27.7913 8.52315 30.5867 4.99265 34.1568 4.79157C34.2974 4.78278 34.3501 4.84651 34.315 4.98276L34.1897 5.47064C34.159 5.59151 34.0831 5.66953 33.9623 5.70469C31.2295 6.50243 29.5549 9.08685 28.744 11.6614Z" fill="#EE1D22"/>
<path d="M19.9588 18.9926C16.5635 20.176 11.9979 19.1706 11.4474 15.0204C10.709 9.45599 15.1559 6.91113 20.028 8.37805C20.1423 8.41321 20.1852 8.48903 20.1566 8.60551L19.85 9.84827C19.8149 9.99111 19.7259 10.0417 19.583 9.9999C11.2891 7.47812 11.4243 20.0805 19.5896 17.4433C19.7259 17.3993 19.8083 17.4488 19.8368 17.5916L20.0742 18.7882C20.0962 18.8915 20.0577 18.9597 19.9588 18.9926Z" fill="#244C9B"/>
<path d="M54.9178 9.9439V19.197C54.9178 19.2268 54.906 19.2553 54.8849 19.2763C54.8639 19.2973 54.8354 19.3091 54.8057 19.3091H52.8872C52.8574 19.3091 52.8289 19.2973 52.8079 19.2763C52.7869 19.2553 52.7751 19.2268 52.7751 19.197V9.9439C52.7751 9.91417 52.7633 9.88567 52.7422 9.86465C52.7212 9.84363 52.6927 9.83182 52.663 9.83182H49.6731C49.6434 9.83182 49.6149 9.82001 49.5939 9.79899C49.5728 9.77797 49.561 9.74947 49.561 9.71974V8.29567C49.561 8.26595 49.5728 8.23744 49.5939 8.21642C49.6149 8.1954 49.6434 8.18359 49.6731 8.18359H58.1219C58.1516 8.18359 58.1802 8.1954 58.2012 8.21642C58.2222 8.23744 58.234 8.26595 58.234 8.29567L58.2175 9.71974C58.2175 9.74947 58.2057 9.77797 58.1847 9.79899C58.1637 9.82001 58.1352 9.83182 58.1054 9.83182H55.0298C55.0001 9.83182 54.9716 9.84363 54.9506 9.86465C54.9296 9.88567 54.9178 9.91417 54.9178 9.9439Z" fill="#244C9B"/>
<path d="M68.9967 14.1272C70.4636 15.0238 70.7669 17.539 71.2119 19.1081C71.2515 19.2422 71.202 19.3092 71.0636 19.3092H69.3395C69.2011 19.3092 69.111 19.2433 69.0692 19.1114C68.4495 17.1632 68.4363 14.048 65.3574 14.77C65.2651 14.7919 65.219 14.8513 65.219 14.948V19.1444C65.219 19.2542 65.164 19.3092 65.0542 19.3092H63.3235C63.2136 19.3092 63.1587 19.2542 63.1587 19.1444V8.44408C63.1587 8.35618 63.2026 8.30453 63.2905 8.28915C65.6772 7.91335 70.724 7.45844 70.8526 10.9791C70.901 12.2954 70.2845 13.28 69.0033 13.9327C68.8846 13.9942 68.8824 14.059 68.9967 14.1272ZM65.3574 13.1811C70.1076 13.603 69.8076 8.87921 65.3838 9.7264C65.2739 9.74618 65.219 9.81211 65.219 9.92419V13.0327C65.219 13.125 65.2651 13.1745 65.3574 13.1811Z" fill="#244C9B"/>
<path d="M101.035 10.3527C101.036 10.3422 101.033 10.3316 101.027 10.3232C101.02 10.3149 101.011 10.3095 101 10.3082C100.99 10.3068 100.979 10.3098 100.971 10.3163C100.963 10.3227 100.957 10.3323 100.956 10.3428L98.055 18.9432C98.0155 19.0575 97.9364 19.1179 97.8177 19.1245L96.4826 19.1904C96.3574 19.197 96.2771 19.141 96.242 19.0223L93.6279 10.4845C93.6243 10.4749 93.6176 10.4667 93.6089 10.4613C93.6001 10.4559 93.5898 10.4536 93.5795 10.4547C93.5693 10.4558 93.5597 10.4604 93.5524 10.4676C93.545 10.4748 93.5403 10.4842 93.5389 10.4944L93.1466 19.0718C93.14 19.23 93.0576 19.3091 92.8994 19.3091H91.3698C91.2226 19.3091 91.1545 19.2355 91.1655 19.0883L91.8973 8.35831C91.9061 8.24843 91.9654 8.19349 92.0753 8.19349L94.4949 8.16382C94.6135 8.16382 94.6927 8.21876 94.7322 8.32864C95.686 10.9372 96.5189 13.5821 97.2309 16.2632C97.2331 16.2723 97.2382 16.2804 97.2454 16.2863C97.2526 16.2922 97.2616 16.2956 97.2709 16.296C97.2802 16.2964 97.2894 16.2937 97.2971 16.2884C97.3047 16.2831 97.3104 16.2754 97.3133 16.2665L99.9373 8.37809C99.9791 8.25282 100.066 8.18909 100.198 8.18689L102.588 8.17371C102.715 8.17371 102.783 8.23744 102.792 8.3649L103.445 19.1476C103.451 19.2553 103.401 19.3091 103.293 19.3091H101.609C101.472 19.3091 101.402 19.2421 101.398 19.108L101.035 10.3527Z" fill="#244C9B"/>
<path d="M38.0298 10.8339L38.1353 19.1278C38.1375 19.2487 38.0782 19.3091 37.9573 19.3091H36.375C36.2651 19.3091 36.2102 19.2542 36.2102 19.1443V8.35831C36.2102 8.24183 36.2684 8.18359 36.3849 8.18359H38.3496C38.4573 8.18359 38.5408 8.22865 38.6001 8.31875C40.3604 10.9251 41.9636 13.6227 43.4097 16.4115C43.4117 16.4166 43.4153 16.4206 43.42 16.4229C43.4247 16.4251 43.4302 16.4255 43.4355 16.424C43.4409 16.4225 43.4458 16.4191 43.4495 16.4144C43.4532 16.4098 43.4554 16.4041 43.4558 16.3984L43.3503 8.3649C43.3481 8.24403 43.4075 8.18359 43.5283 8.18359H45.2062C45.3249 8.18359 45.3831 8.24293 45.3809 8.3616L45.2853 19.0981C45.2831 19.2388 45.2128 19.3091 45.0744 19.3091H43.2976C43.1459 19.3091 43.0317 19.2443 42.9547 19.1146L38.0661 10.8241C38.0638 10.8206 38.0605 10.8179 38.0566 10.8164C38.0527 10.815 38.0484 10.8148 38.0444 10.8159C38.0404 10.817 38.0368 10.8193 38.0342 10.8225C38.0316 10.8258 38.0301 10.8298 38.0298 10.8339Z" fill="#244C9B"/>
<path d="M81.3123 19.5069C78.6883 19.7508 76.7731 18.2312 76.5654 15.5611C76.3786 13.17 76.3479 10.7724 76.4731 8.36819C76.4797 8.24513 76.5446 8.18359 76.6676 8.18359H78.3224C78.4455 8.18359 78.5059 8.24513 78.5037 8.36819C78.4466 11.1328 78.4807 13.5063 78.6059 15.4885C78.8103 18.7322 83.2506 18.7158 83.3034 15.0435C83.3473 12.0349 83.3627 9.80545 83.3495 8.35501C83.3473 8.24073 83.4034 8.18359 83.5176 8.18359H85.3175C85.4208 8.18359 85.4735 8.23524 85.4757 8.33853C85.5219 10.4944 85.5098 12.647 85.4395 14.7963C85.3472 17.5158 84.0418 19.2564 81.3123 19.5069Z" fill="#244C9B"/>
<path d="M26.7791 11.6976L28.7438 11.6614L32.6138 11.7207C32.6324 11.7209 32.6507 11.7254 32.6673 11.7339C32.6838 11.7425 32.6981 11.7548 32.709 11.7698C32.7199 11.7849 32.7272 11.8024 32.7301 11.8207C32.733 11.8391 32.7316 11.8579 32.7259 11.8757L32.3896 12.9009C32.375 12.9459 32.3467 12.9852 32.3088 13.013C32.2709 13.0408 32.2254 13.0558 32.1787 13.0558L28.2559 13.0789L25.0236 13.1428C24.6324 13.0087 25.6012 12.9866 25.1243 13.0855C25.0166 13.1074 24.9869 13.1679 25.0353 13.2668L25.4341 14.0942C25.5374 14.3073 25.4792 14.3722 25.2594 14.2887L20.5949 12.5382C20.3466 12.4459 20.3466 12.3536 20.5949 12.2613L25.3748 10.4615C25.6143 10.3736 25.6715 10.4406 25.5462 10.6626L25.055 11.5394C24.9891 11.6559 25.0232 11.713 25.1572 11.7108L26.7791 11.6976Z" fill="#244C9B"/>
<path d="M28.2559 13.0789C27.6724 15.8248 27.4944 18.6268 29.1525 20.9178C29.4558 21.3365 29.4558 21.7551 29.1822 22.1474C29.1096 22.2529 29.025 22.265 28.9283 22.1837C26.4065 20.0838 25.8791 16.2006 26.4263 13.1382L28.2559 13.0789Z" fill="#EE1D22"/>
</svg>
