<svg width="24" height="25" viewBox="0 0 24 25" fill="none" xmlns="http://www.w3.org/2000/svg">
<path opacity="0.2" d="M12 14.4113C8.83955 14.4196 5.73363 13.5881 3 12.002V19.6613C3 19.8602 3.07902 20.051 3.21967 20.1917C3.36032 20.3323 3.55109 20.4113 3.75 20.4113H20.25C20.4489 20.4113 20.6397 20.3323 20.7803 20.1917C20.921 20.051 21 19.8602 21 19.6613V12.002C18.2646 13.5839 15.1599 14.4151 12 14.4113Z" fill="#244C9B"/>
<path d="M20.25 6.9104H3.75C3.33579 6.9104 3 7.24619 3 7.6604V19.6604C3 20.0746 3.33579 20.4104 3.75 20.4104H20.25C20.6642 20.4104 21 20.0746 21 19.6604V7.6604C21 7.24619 20.6642 6.9104 20.25 6.9104Z" stroke="#244C9B" stroke-width="1.56" stroke-linecap="round" stroke-linejoin="round"/>
<path d="M15.75 6.9104V5.4104C15.75 5.01258 15.592 4.63104 15.3107 4.34974C15.0294 4.06844 14.6478 3.9104 14.25 3.9104H9.75C9.35218 3.9104 8.97064 4.06844 8.68934 4.34974C8.40804 4.63104 8.25 5.01258 8.25 5.4104V6.9104" stroke="#244C9B" stroke-width="1.56" stroke-linecap="round" stroke-linejoin="round"/>
<path d="M21 12.002C18.2646 13.5839 15.1599 14.4151 12 14.4113C8.83955 14.4196 5.73363 13.5881 3 12.002" stroke="#244C9B" stroke-width="1.56" stroke-linecap="round" stroke-linejoin="round"/>
<path d="M10.875 11.4104H13.125" stroke="#244C9B" stroke-width="1.56" stroke-linecap="round" stroke-linejoin="round"/>
</svg>
